<svg width="363" height="138" viewBox="0 0 363 138" fill="none" xmlns="http://www.w3.org/2000/svg">
<mask id="path-1-outside-1_16_39" maskUnits="userSpaceOnUse" x="0" y="0" width="363" height="138" fill="black">
<rect fill="white" width="363" height="138"/>
<path d="M1 107.526V31.3982L33.16 30.9182C39.112 30.7902 43.592 32.1342 46.6 34.9502C49.608 37.7022 51.112 41.7982 51.112 47.2382V62.7902C51.112 67.9102 49.608 71.9743 46.6 74.9823C43.592 77.9263 39.112 79.3983 33.16 79.3983H13.096V107.526H1ZM37.192 41.4782H13.096V68.9343H37.192C38.216 68.9343 38.728 68.4223 38.728 67.3983V43.0142C38.728 41.9902 38.216 41.4782 37.192 41.4782Z"/>
<path d="M59.7985 62.5023C59.7985 57.1902 61.0785 53.4462 63.6385 51.2702C66.1985 49.0302 70.3905 47.9102 76.2145 47.9102H86.6785C92.5665 47.9102 96.7905 49.0302 99.3505 51.2702C101.91 53.4462 103.19 57.1902 103.19 62.5023V93.7983C103.19 99.1103 101.91 102.886 99.3505 105.126C96.7905 107.302 92.5665 108.39 86.6785 108.39H76.2145C70.3905 108.39 66.1985 107.302 63.6385 105.126C61.0785 102.886 59.7985 99.1103 59.7985 93.7983V62.5023ZM72.8545 57.6062C71.9585 57.6062 71.5105 58.0542 71.5105 58.9502V97.3503C71.5105 98.2463 71.9585 98.6943 72.8545 98.6943H90.2305C91.0625 98.6943 91.4785 98.2463 91.4785 97.3503V58.9502C91.4785 58.0542 91.0625 57.6062 90.2305 57.6062H72.8545Z"/>
<path d="M113.506 107.814L113.41 98.4063H139.33C140.226 98.4063 140.674 97.9903 140.674 97.1583V83.6223C140.674 82.7263 140.226 82.2783 139.33 82.2783H127.714C122.21 82.2783 118.274 81.2863 115.906 79.3023C113.602 77.2543 112.45 73.6703 112.45 68.5503V62.2142C112.45 56.9023 113.666 53.1902 116.098 51.0782C118.594 48.9022 122.562 47.8462 128.002 47.9102H149.122V57.7022L125.506 57.6062C124.674 57.6062 124.258 58.0542 124.258 58.9502V71.8143C124.258 72.7103 124.674 73.1583 125.506 73.1583H137.026C142.53 73.1583 146.434 74.1503 148.738 76.1343C151.042 78.0543 152.194 81.6063 152.194 86.7903V94.8543C152.194 99.7183 151.074 103.11 148.834 105.03C146.658 106.886 143.138 107.814 138.274 107.814H113.506Z"/>
<path d="M189.867 57.8942H176.139V96.4863C176.139 97.3183 176.555 97.7343 177.387 97.7343H189.867V107.526H180.939C175.179 107.526 170.987 106.406 168.363 104.166C165.803 101.926 164.523 98.1823 164.523 92.9343V57.8942H157.611V48.7742H164.523V33.7982H176.139V48.7742H189.867V57.8942Z"/>
<path d="M226.934 120.102V102.246C225.59 106.342 222.166 108.39 216.662 108.39H209.846C205.046 108.39 201.526 107.462 199.286 105.606C197.046 103.686 195.926 100.294 195.926 95.4303V48.7742H207.542V97.6383C207.542 98.5343 207.99 98.9823 208.886 98.9823H226.934L226.838 48.7742H238.454L238.55 116.55C238.55 121.862 237.238 125.638 234.614 127.878C232.054 130.118 227.894 131.238 222.134 131.238H197.846V121.446H225.686C226.518 121.446 226.934 120.998 226.934 120.102Z"/>
<path d="M164.096 126.601L197.846 117.075V136.127L164.096 126.601Z"/>
<path d="M62.75 11.5263L29 21.0526V2L62.75 11.5263Z"/>
<path d="M29 16.3982V7.39823H8C5.66667 7.39823 1 8.29823 1 11.8982V16.3982H29Z"/>
<path d="M1 31.3982V16.3982H12V31.2341L1 31.3982Z"/>
</mask>
<path d="M1 107.526V31.3982L33.16 30.9182C39.112 30.7902 43.592 32.1342 46.6 34.9502C49.608 37.7022 51.112 41.7982 51.112 47.2382V62.7902C51.112 67.9102 49.608 71.9743 46.6 74.9823C43.592 77.9263 39.112 79.3983 33.16 79.3983H13.096V107.526H1ZM37.192 41.4782H13.096V68.9343H37.192C38.216 68.9343 38.728 68.4223 38.728 67.3983V43.0142C38.728 41.9902 38.216 41.4782 37.192 41.4782Z" fill="white"/>
<path d="M59.7985 62.5023C59.7985 57.1902 61.0785 53.4462 63.6385 51.2702C66.1985 49.0302 70.3905 47.9102 76.2145 47.9102H86.6785C92.5665 47.9102 96.7905 49.0302 99.3505 51.2702C101.91 53.4462 103.19 57.1902 103.19 62.5023V93.7983C103.19 99.1103 101.91 102.886 99.3505 105.126C96.7905 107.302 92.5665 108.39 86.6785 108.39H76.2145C70.3905 108.39 66.1985 107.302 63.6385 105.126C61.0785 102.886 59.7985 99.1103 59.7985 93.7983V62.5023ZM72.8545 57.6062C71.9585 57.6062 71.5105 58.0542 71.5105 58.9502V97.3503C71.5105 98.2463 71.9585 98.6943 72.8545 98.6943H90.2305C91.0625 98.6943 91.4785 98.2463 91.4785 97.3503V58.9502C91.4785 58.0542 91.0625 57.6062 90.2305 57.6062H72.8545Z" fill="white"/>
<path d="M113.506 107.814L113.41 98.4063H139.33C140.226 98.4063 140.674 97.9903 140.674 97.1583V83.6223C140.674 82.7263 140.226 82.2783 139.33 82.2783H127.714C122.21 82.2783 118.274 81.2863 115.906 79.3023C113.602 77.2543 112.45 73.6703 112.45 68.5503V62.2142C112.45 56.9023 113.666 53.1902 116.098 51.0782C118.594 48.9022 122.562 47.8462 128.002 47.9102H149.122V57.7022L125.506 57.6062C124.674 57.6062 124.258 58.0542 124.258 58.9502V71.8143C124.258 72.7103 124.674 73.1583 125.506 73.1583H137.026C142.53 73.1583 146.434 74.1503 148.738 76.1343C151.042 78.0543 152.194 81.6063 152.194 86.7903V94.8543C152.194 99.7183 151.074 103.11 148.834 105.03C146.658 106.886 143.138 107.814 138.274 107.814H113.506Z" fill="white"/>
<path d="M189.867 57.8942H176.139V96.4863C176.139 97.3183 176.555 97.7343 177.387 97.7343H189.867V107.526H180.939C175.179 107.526 170.987 106.406 168.363 104.166C165.803 101.926 164.523 98.1823 164.523 92.9343V57.8942H157.611V48.7742H164.523V33.7982H176.139V48.7742H189.867V57.8942Z" fill="white"/>
<path d="M226.934 120.102V102.246C225.59 106.342 222.166 108.39 216.662 108.39H209.846C205.046 108.39 201.526 107.462 199.286 105.606C197.046 103.686 195.926 100.294 195.926 95.4303V48.7742H207.542V97.6383C207.542 98.5343 207.99 98.9823 208.886 98.9823H226.934L226.838 48.7742H238.454L238.55 116.55C238.55 121.862 237.238 125.638 234.614 127.878C232.054 130.118 227.894 131.238 222.134 131.238H197.846V121.446H225.686C226.518 121.446 226.934 120.998 226.934 120.102Z" fill="white"/>
<path d="M164.096 126.601L197.846 117.075V136.127L164.096 126.601Z" fill="white"/>
<path d="M62.75 11.5263L29 21.0526V2L62.75 11.5263Z" fill="white"/>
<path d="M29 16.3982V7.39823H8C5.66667 7.39823 1 8.29823 1 11.8982V16.3982H29Z" fill="white"/>
<path d="M1 31.3982V16.3982H12V31.2341L1 31.3982Z" fill="white"/>
<path d="M253.75 107.526H253.25V108.026H253.75V107.526ZM253.75 31.3982L253.743 30.8983L253.25 30.9057V31.3982H253.75ZM285.91 30.9182L285.917 31.4182L285.921 31.4181L285.91 30.9182ZM299.35 34.9502L299.008 35.3153L299.013 35.3191L299.35 34.9502ZM299.35 74.9823L299.7 75.3396L299.704 75.3358L299.35 74.9823ZM265.846 79.3983V78.8983H265.346V79.3983H265.846ZM265.846 107.526V108.026H266.346V107.526H265.846ZM265.846 41.4782V40.9782H265.346V41.4782H265.846ZM265.846 68.9343H265.346V69.4343H265.846V68.9343ZM360.741 107.622V108.122H361.236L361.24 107.627L360.741 107.622ZM310.245 97.7343L309.831 97.4531L309.745 97.5804V97.7343H310.245ZM347.589 42.8222L347.182 42.5315L347.175 42.5411L347.589 42.8222ZM347.78 41.6702L347.316 41.8559L347.331 41.8931L347.352 41.9275L347.78 41.6702ZM313.22 41.1902H312.72V41.6902H313.22V41.1902ZM313.22 31.3022V30.8022H312.72V31.3022H313.22ZM359.492 34.2782L359.109 34.5996L359.115 34.6057L359.492 34.2782ZM361.988 42.2462L362.401 42.5284L362.488 42.4008V42.2462H361.988ZM325.316 95.9103L324.904 95.6282L324.892 95.6447L324.882 95.6622L325.316 95.9103ZM325.029 97.1583L324.535 97.2404L324.542 97.2791L324.554 97.3164L325.029 97.1583ZM360.836 97.7343L361.336 97.7391L361.341 97.2343H360.836V97.7343ZM254.25 107.526V31.3982H253.25V107.526H254.25ZM253.757 31.8982L285.917 31.4182L285.903 30.4183L253.743 30.8983L253.757 31.8982ZM285.921 31.4181C291.8 31.2917 296.131 32.6216 299.008 35.3153L299.692 34.5852C296.553 31.6469 291.924 30.2888 285.899 30.4184L285.921 31.4181ZM299.013 35.3191C301.886 37.9477 303.362 41.8894 303.362 47.2382H304.362C304.362 41.7071 302.83 37.4568 299.688 34.5813L299.013 35.3191ZM303.362 47.2382V62.7902H304.362V47.2382H303.362ZM303.362 62.7902C303.362 67.8065 301.892 71.7331 298.996 74.6287L299.704 75.3358C302.824 72.2154 304.362 68.014 304.362 62.7902H303.362ZM299 74.6249C296.119 77.4453 291.786 78.8983 285.91 78.8983V79.8983C291.938 79.8983 296.565 78.4072 299.7 75.3396L299 74.6249ZM285.91 78.8983H265.846V79.8983H285.91V78.8983ZM265.346 79.3983V107.526H266.346V79.3983H265.346ZM265.846 107.026H253.75V108.026H265.846V107.026ZM289.942 40.9782H265.846V41.9782H289.942V40.9782ZM265.346 41.4782V68.9343H266.346V41.4782H265.346ZM265.846 69.4343H289.942V68.4343H265.846V69.4343ZM289.942 69.4343C290.531 69.4343 291.065 69.2867 291.448 68.9038C291.83 68.521 291.978 67.9873 291.978 67.3983H290.978C290.978 67.8332 290.87 68.0675 290.74 68.1967C290.611 68.3259 290.377 68.4343 289.942 68.4343V69.4343ZM291.978 67.3983V43.0142H290.978V67.3983H291.978ZM291.978 43.0142C291.978 42.4252 291.83 41.8915 291.448 41.5087C291.065 41.1259 290.531 40.9782 289.942 40.9782V41.9782C290.377 41.9782 290.611 42.0866 290.74 42.2158C290.87 42.345 290.978 42.5793 290.978 43.0142H291.978ZM360.741 107.122H320.036V108.122H360.741V107.122ZM320.036 107.122C316.851 107.122 314.553 106.319 313.048 104.798C311.542 103.277 310.745 100.954 310.745 97.7343H309.745C309.745 101.106 310.579 103.727 312.337 105.502C314.096 107.278 316.694 108.122 320.036 108.122V107.122ZM310.658 98.0154L348.002 43.1034L347.175 42.5411L309.831 97.4531L310.658 98.0154ZM347.995 43.1129C348.368 42.5916 348.55 41.9809 348.209 41.413L347.352 41.9275C347.395 41.9996 347.449 42.1569 347.182 42.5316L347.995 43.1129ZM348.245 41.4846C348.005 40.8862 347.421 40.6902 346.82 40.6902V41.6902C347.244 41.6902 347.3 41.8143 347.316 41.8559L348.245 41.4846ZM346.82 40.6902H313.22V41.6902H346.82V40.6902ZM313.72 41.1902V31.3022H312.72V41.1902H313.72ZM313.22 31.8022H351.621V30.8022H313.22V31.8022ZM351.621 31.8022C355.116 31.8022 357.573 32.7677 359.109 34.5995L359.876 33.9569C358.084 31.8208 355.293 30.8022 351.621 30.8022V31.8022ZM359.115 34.6057C360.677 36.4081 361.488 38.9338 361.488 42.2462H362.488C362.488 38.7747 361.636 35.9884 359.87 33.9508L359.115 34.6057ZM361.576 41.9641L324.904 95.6282L325.729 96.1924L362.401 42.5284L361.576 41.9641ZM324.882 95.6622C324.588 96.1775 324.447 96.7105 324.535 97.2404L325.522 97.0761C325.482 96.838 325.533 96.539 325.751 96.1583L324.882 95.6622ZM324.554 97.3164C324.652 97.6113 324.836 97.8562 325.107 98.019C325.369 98.1759 325.674 98.2343 325.988 98.2343V97.2343C325.791 97.2343 325.68 97.1967 325.622 97.1615C325.573 97.1323 325.533 97.0892 325.503 97.0002L324.554 97.3164ZM325.988 98.2343H360.836V97.2343H325.988V98.2343ZM360.337 97.7294L360.241 107.617L361.24 107.627L361.336 97.7391L360.337 97.7294ZM1 107.526H0V108.526H1V107.526ZM1 31.3982L0.985076 30.3984L0 30.4131V31.3982H1ZM33.16 30.9182L33.1749 31.9182L33.1815 31.918L33.16 30.9182ZM46.6 34.9502L45.9165 35.6803L45.925 35.688L46.6 34.9502ZM46.6 74.9823L47.2995 75.697L47.3071 75.6894L46.6 74.9823ZM13.096 79.3983V78.3983H12.096V79.3983H13.096ZM13.096 107.526V108.526H14.096V107.526H13.096ZM13.096 41.4782V40.4782H12.096V41.4782H13.096ZM13.096 68.9343H12.096V69.9343H13.096V68.9343ZM63.6385 51.2702L64.2861 52.0322L64.2916 52.0275L64.297 52.0228L63.6385 51.2702ZM99.3505 51.2702L98.692 52.0228L98.6974 52.0275L98.7029 52.0322L99.3505 51.2702ZM99.3505 105.126L99.9982 105.888L100.004 105.884L100.009 105.879L99.3505 105.126ZM63.6385 105.126L62.98 105.879L62.9854 105.884L62.9909 105.888L63.6385 105.126ZM113.506 107.814L112.506 107.824L112.516 108.814H113.506V107.814ZM113.41 98.4063V97.4063H112.4L112.41 98.4165L113.41 98.4063ZM115.906 79.3023L115.242 80.0497L115.253 80.0594L115.264 80.0688L115.906 79.3023ZM116.098 51.0782L116.754 51.8333L116.755 51.832L116.098 51.0782ZM128.002 47.9102L127.99 48.9102H128.002V47.9102ZM149.122 47.9102H150.122V46.9102H149.122V47.9102ZM149.122 57.7022L149.118 58.7022L150.122 58.7063V57.7022H149.122ZM125.506 57.6062L125.51 56.6062H125.506V57.6062ZM148.738 76.1343L148.085 76.892L148.092 76.8973L148.098 76.9025L148.738 76.1343ZM148.834 105.03L149.483 105.791L149.485 105.79L148.834 105.03ZM189.867 57.8942V58.8942H190.867V57.8942H189.867ZM176.139 57.8942V56.8942H175.139V57.8942H176.139ZM189.867 97.7343H190.867V96.7343H189.867V97.7343ZM189.867 107.526V108.526H190.867V107.526H189.867ZM168.363 104.166L167.704 104.919L167.713 104.927L168.363 104.166ZM164.523 57.8942H165.523V56.8942H164.523V57.8942ZM157.611 57.8942H156.611V58.8942H157.611V57.8942ZM157.611 48.7742V47.7742H156.611V48.7742H157.611ZM164.523 48.7742V49.7742H165.523V48.7742H164.523ZM164.523 33.7982V32.7982H163.523V33.7982H164.523ZM176.139 33.7982H177.139V32.7982H176.139V33.7982ZM176.139 48.7742H175.139V49.7742H176.139V48.7742ZM189.867 48.7742H190.867V47.7742H189.867V48.7742ZM226.934 102.246H227.934L225.984 101.934L226.934 102.246ZM199.286 105.606L198.635 106.366L198.641 106.371L198.648 106.376L199.286 105.606ZM195.926 48.7742V47.7742H194.926V48.7742H195.926ZM207.542 48.7742H208.542V47.7742H207.542V48.7742ZM226.934 98.9823V99.9823H227.936L227.934 98.9803L226.934 98.9823ZM226.838 48.7742V47.7742H225.836L225.838 48.7762L226.838 48.7742ZM238.454 48.7742L239.454 48.7728L239.452 47.7742H238.454V48.7742ZM238.55 116.55H239.55V116.549L238.55 116.55ZM234.614 127.878L233.964 127.118L233.955 127.126L234.614 127.878ZM197.846 131.238H196.846V132.238H197.846V131.238ZM197.846 121.446V120.446H196.846V121.446H197.846ZM164.096 126.601L163.824 125.638L160.414 126.601L163.824 127.563L164.096 126.601ZM197.846 117.075H198.846V115.753L197.574 116.112L197.846 117.075ZM197.846 136.127L197.574 137.09L198.846 137.448V136.127H197.846ZM62.75 11.5263L63.0216 12.4887L66.4313 11.5263L63.0216 10.5639L62.75 11.5263ZM29 21.0526H28V22.3739L29.2716 22.015L29 21.0526ZM29 2L29.2716 1.0376L28 0.678668V2H29ZM29 16.3982V17.3982H30V16.3982H29ZM29 7.39823H30V6.39823H29V7.39823ZM1 16.3982H0V17.3982H1V16.3982ZM1 31.3982H0V32.4133L1.01492 32.3981L1 31.3982ZM1 16.3982V15.3982H0V16.3982H1ZM12 16.3982H13V15.3982H12V16.3982ZM12 31.2341L12.0149 32.234L13 32.2193V31.2341H12ZM2 107.526V31.3982H0V107.526H2ZM1.01492 32.3981L33.1749 31.9181L33.1451 29.9184L0.985076 30.3984L1.01492 32.3981ZM33.1815 31.918C38.9884 31.7931 43.17 33.109 45.9166 35.6803L47.2834 34.2202C44.014 31.1595 39.2356 29.7874 33.1385 29.9185L33.1815 31.918ZM45.925 35.688C48.6631 38.1931 50.112 41.9806 50.112 47.2382H52.112C52.112 41.6159 50.5529 37.2114 47.275 34.2124L45.925 35.688ZM50.112 47.2382V62.7902H52.112V47.2382H50.112ZM50.112 62.7902C50.112 67.7028 48.6761 71.4919 45.8929 74.2751L47.3071 75.6894C50.5399 72.4566 52.112 68.1177 52.112 62.7902H50.112ZM45.9005 74.2676C43.1451 76.9644 38.9596 78.3983 33.16 78.3983V80.3983C39.2644 80.3983 44.0389 78.8881 47.2995 75.6969L45.9005 74.2676ZM33.16 78.3983H13.096V80.3983H33.16V78.3983ZM12.096 79.3983V107.526H14.096V79.3983H12.096ZM13.096 106.526H1V108.526H13.096V106.526ZM37.192 40.4782H13.096V42.4782H37.192V40.4782ZM12.096 41.4782V68.9343H14.096V41.4782H12.096ZM13.096 69.9343H37.192V67.9343H13.096V69.9343ZM37.192 69.9343C37.8581 69.9343 38.5414 69.767 39.0511 69.2574C39.5608 68.7477 39.728 68.0644 39.728 67.3983H37.728C37.728 67.7561 37.6392 67.8408 37.6369 67.8432C37.6346 67.8455 37.5499 67.9343 37.192 67.9343V69.9343ZM39.728 67.3983V43.0142H37.728V67.3983H39.728ZM39.728 43.0142C39.728 42.3481 39.5608 41.6648 39.0511 41.1551C38.5414 40.6455 37.8581 40.4782 37.192 40.4782V42.4782C37.5499 42.4782 37.6346 42.567 37.6369 42.5694C37.6392 42.5717 37.728 42.6564 37.728 43.0142H39.728ZM60.7985 62.5023C60.7985 57.3144 62.0526 53.9307 64.2861 52.0322L62.9909 50.5083C60.1044 52.9618 58.7985 57.0661 58.7985 62.5023H60.7985ZM64.297 52.0228C66.5833 50.0224 70.4746 48.9102 76.2145 48.9102V46.9102C70.3064 46.9102 65.8137 48.0381 62.98 50.5177L64.297 52.0228ZM76.2145 48.9102H86.6785V46.9102H76.2145V48.9102ZM86.6785 48.9102C92.4858 48.9102 96.4072 50.0237 98.692 52.0228L100.009 50.5177C97.1738 48.0368 92.6472 46.9102 86.6785 46.9102V48.9102ZM98.7029 52.0322C100.936 53.9307 102.19 57.3144 102.19 62.5023H104.19C104.19 57.0661 102.885 52.9618 99.9982 50.5083L98.7029 52.0322ZM102.19 62.5023V93.7983H104.19V62.5023H102.19ZM102.19 93.7983C102.19 98.9827 100.938 102.409 98.692 104.374L100.009 105.879C102.883 103.364 104.19 99.2378 104.19 93.7983H102.19ZM98.7029 104.364C96.4171 106.307 92.4906 107.39 86.6785 107.39V109.39C92.6424 109.39 97.1639 108.297 99.9982 105.888L98.7029 104.364ZM86.6785 107.39H76.2145V109.39H86.6785V107.39ZM76.2145 107.39C70.4697 107.39 66.5733 106.308 64.2861 104.364L62.9909 105.888C65.8237 108.296 70.3113 109.39 76.2145 109.39V107.39ZM64.297 104.374C62.0512 102.409 60.7985 98.9827 60.7985 93.7983H58.7985C58.7985 99.2378 60.1058 103.364 62.98 105.879L64.297 104.374ZM60.7985 93.7983V62.5023H58.7985V93.7983H60.7985ZM72.8545 56.6062C72.2524 56.6062 71.6171 56.7575 71.1394 57.2351C70.6617 57.7128 70.5105 58.3481 70.5105 58.9502H72.5105C72.5105 58.6564 72.5833 58.6197 72.5536 58.6494C72.5239 58.679 72.5606 58.6062 72.8545 58.6062V56.6062ZM70.5105 58.9502V97.3503H72.5105V58.9502H70.5105ZM70.5105 97.3503C70.5105 97.9524 70.6617 98.5877 71.1394 99.0654C71.6171 99.543 72.2524 99.6943 72.8545 99.6943V97.6943C72.5606 97.6943 72.5239 97.6215 72.5536 97.6512C72.5833 97.6808 72.5105 97.6441 72.5105 97.3503H70.5105ZM72.8545 99.6943H90.2305V97.6943H72.8545V99.6943ZM90.2305 99.6943C90.8204 99.6943 91.4413 99.532 91.8993 99.0387C92.3443 98.5594 92.4785 97.9348 92.4785 97.3503H90.4785C90.4785 97.6618 90.4047 97.7091 90.4337 97.6778C90.4476 97.6628 90.457 97.6625 90.4386 97.6691C90.4147 97.6777 90.3515 97.6943 90.2305 97.6943V99.6943ZM92.4785 97.3503V58.9502H90.4785V97.3503H92.4785ZM92.4785 58.9502C92.4785 58.3657 92.3443 57.7411 91.8993 57.2618C91.4413 56.7685 90.8204 56.6062 90.2305 56.6062V58.6062C90.3515 58.6062 90.4147 58.6228 90.4386 58.6314C90.457 58.638 90.4476 58.6377 90.4337 58.6227C90.4047 58.5914 90.4785 58.6387 90.4785 58.9502H92.4785ZM90.2305 56.6062H72.8545V58.6062H90.2305V56.6062ZM114.506 107.804L114.41 98.3961L112.41 98.4165L112.506 107.824L114.506 107.804ZM113.41 99.4063H139.33V97.4063H113.41V99.4063ZM139.33 99.4063C139.914 99.4063 140.539 99.2721 141.018 98.827C141.512 98.369 141.674 97.7482 141.674 97.1583H139.674C139.674 97.2792 139.657 97.3424 139.649 97.3664C139.642 97.3848 139.643 97.3754 139.658 97.3615C139.689 97.3324 139.642 97.4063 139.33 97.4063V99.4063ZM141.674 97.1583V83.6223H139.674V97.1583H141.674ZM141.674 83.6223C141.674 83.0201 141.523 82.3848 141.045 81.9072C140.567 81.4295 139.932 81.2783 139.33 81.2783V83.2783C139.624 83.2783 139.661 83.351 139.631 83.3214C139.601 83.2917 139.674 83.3284 139.674 83.6223H141.674ZM139.33 81.2783H127.714V83.2783H139.33V81.2783ZM127.714 81.2783C122.28 81.2783 118.641 80.2893 116.548 78.5357L115.264 80.0688C117.907 82.2832 122.14 83.2783 127.714 83.2783V81.2783ZM116.57 78.5549C114.586 76.7909 113.45 73.5667 113.45 68.5503H111.45C111.45 73.7738 112.618 77.7176 115.242 80.0497L116.57 78.5549ZM113.45 68.5503V62.2142H111.45V68.5503H113.45ZM113.45 62.2142C113.45 57.0093 114.648 53.6617 116.754 51.8333L115.442 50.3232C112.684 52.7188 111.45 56.7952 111.45 62.2142H113.45ZM116.755 51.832C118.979 49.8936 122.648 48.8473 127.99 48.9102L128.014 46.9103C122.476 46.8452 118.209 47.9109 115.441 50.3245L116.755 51.832ZM128.002 48.9102H149.122V46.9102H128.002V48.9102ZM148.122 47.9102V57.7022H150.122V47.9102H148.122ZM149.126 56.7022L125.51 56.6063L125.502 58.6062L149.118 58.7022L149.126 56.7022ZM125.506 56.6062C124.916 56.6062 124.295 56.7685 123.837 57.2618C123.392 57.7411 123.258 58.3657 123.258 58.9502H125.258C125.258 58.6387 125.332 58.5914 125.303 58.6227C125.289 58.6377 125.279 58.638 125.298 58.6314C125.322 58.6228 125.385 58.6062 125.506 58.6062V56.6062ZM123.258 58.9502V71.8143H125.258V58.9502H123.258ZM123.258 71.8143C123.258 72.3988 123.392 73.0234 123.837 73.5027C124.295 73.996 124.916 74.1583 125.506 74.1583V72.1583C125.385 72.1583 125.322 72.1417 125.298 72.1331C125.279 72.1265 125.289 72.1268 125.303 72.1418C125.332 72.1731 125.258 72.1258 125.258 71.8143H123.258ZM125.506 74.1583H137.026V72.1583H125.506V74.1583ZM137.026 74.1583C142.464 74.1583 146.061 75.1489 148.085 76.892L149.391 75.3765C146.807 73.1516 142.596 72.1583 137.026 72.1583V74.1583ZM148.098 76.9025C150.052 78.5311 151.194 81.696 151.194 86.7903H153.194C153.194 81.5165 152.032 77.5774 149.378 75.366L148.098 76.9025ZM151.194 86.7903V94.8543H153.194V86.7903H151.194ZM151.194 94.8543C151.194 99.6107 150.092 102.635 148.183 104.271L149.485 105.79C152.056 103.586 153.194 99.8259 153.194 94.8543H151.194ZM148.185 104.269C146.28 105.895 143.053 106.814 138.274 106.814V108.814C143.223 108.814 147.036 107.878 149.483 105.791L148.185 104.269ZM138.274 106.814H113.506V108.814H138.274V106.814ZM189.867 56.8942H176.139V58.8942H189.867V56.8942ZM175.139 57.8942V96.4863H177.139V57.8942H175.139ZM175.139 96.4863C175.139 97.0564 175.282 97.6677 175.743 98.1294C176.205 98.591 176.816 98.7343 177.387 98.7343V96.7343C177.125 96.7343 177.112 96.6695 177.158 96.7152C177.203 96.7608 177.139 96.7481 177.139 96.4863H175.139ZM177.387 98.7343H189.867V96.7343H177.387V98.7343ZM188.867 97.7343V107.526H190.867V97.7343H188.867ZM189.867 106.526H180.939V108.526H189.867V106.526ZM180.939 106.526C175.269 106.526 171.368 105.417 169.012 103.406L167.713 104.927C170.605 107.396 175.088 108.526 180.939 108.526V106.526ZM169.021 103.414C166.773 101.447 165.523 98.0501 165.523 92.9343H163.523C163.523 98.3144 164.832 102.406 167.704 104.919L169.021 103.414ZM165.523 92.9343V57.8942H163.523V92.9343H165.523ZM164.523 56.8942H157.611V58.8942H164.523V56.8942ZM158.611 57.8942V48.7742H156.611V57.8942H158.611ZM157.611 49.7742H164.523V47.7742H157.611V49.7742ZM165.523 48.7742V33.7982H163.523V48.7742H165.523ZM164.523 34.7982H176.139V32.7982H164.523V34.7982ZM175.139 33.7982V48.7742H177.139V33.7982H175.139ZM176.139 49.7742H189.867V47.7742H176.139V49.7742ZM188.867 48.7742V57.8942H190.867V48.7742H188.867ZM227.934 120.102V102.246H225.934V120.102H227.934ZM225.984 101.934C225.38 103.774 224.332 105.106 222.844 105.996C221.336 106.898 219.299 107.39 216.662 107.39V109.39C219.529 109.39 221.956 108.858 223.871 107.712C225.807 106.555 227.143 104.815 227.884 102.558L225.984 101.934ZM216.662 107.39H209.846V109.39H216.662V107.39ZM209.846 107.39C205.139 107.39 201.9 106.474 199.924 104.836L198.648 106.376C201.151 108.451 204.953 109.39 209.846 109.39V107.39ZM199.937 104.847C198.028 103.211 196.926 100.187 196.926 95.4303H194.926C194.926 100.402 196.064 104.162 198.635 106.366L199.937 104.847ZM196.926 95.4303V48.7742H194.926V95.4303H196.926ZM195.926 49.7742H207.542V47.7742H195.926V49.7742ZM206.542 48.7742V97.6383H208.542V48.7742H206.542ZM206.542 97.6383C206.542 98.2404 206.693 98.8757 207.171 99.3534C207.648 99.831 208.284 99.9823 208.886 99.9823V97.9823C208.592 97.9823 208.555 97.9095 208.585 97.9392C208.615 97.9688 208.542 97.9321 208.542 97.6383H206.542ZM208.886 99.9823H226.934V97.9823H208.886V99.9823ZM227.934 98.9803L227.838 48.7723L225.838 48.7762L225.934 98.9842L227.934 98.9803ZM226.838 49.7742H238.454V47.7742H226.838V49.7742ZM237.454 48.7757L237.55 116.552L239.55 116.549L239.454 48.7728L237.454 48.7757ZM237.55 116.55C237.55 121.728 236.269 125.151 233.964 127.118L235.263 128.639C238.207 126.126 239.55 121.996 239.55 116.55H237.55ZM233.955 127.126C231.667 129.127 227.806 130.238 222.134 130.238V132.238C227.981 132.238 232.44 131.109 235.272 128.631L233.955 127.126ZM222.134 130.238H197.846V132.238H222.134V130.238ZM198.846 131.238V121.446H196.846V131.238H198.846ZM197.846 122.446H225.686V120.446H197.846V122.446ZM225.686 122.446C226.276 122.446 226.897 122.284 227.355 121.791C227.8 121.311 227.934 120.687 227.934 120.102H225.934C225.934 120.414 225.86 120.461 225.889 120.43C225.903 120.415 225.912 120.414 225.894 120.421C225.87 120.43 225.807 120.446 225.686 120.446V122.446ZM164.367 127.563L198.117 118.037L197.574 116.112L163.824 125.638L164.367 127.563ZM196.846 117.075V136.127H198.846V117.075H196.846ZM198.117 135.165L164.367 125.638L163.824 127.563L197.574 137.09L198.117 135.165ZM62.4784 10.5639L28.7284 20.0902L29.2716 22.015L63.0216 12.4887L62.4784 10.5639ZM30 21.0526V2H28V21.0526H30ZM28.7284 2.9624L62.4784 12.4887L63.0216 10.5639L29.2716 1.0376L28.7284 2.9624ZM30 16.3982V7.39823H28V16.3982H30ZM29 6.39823H8V8.39823H29V6.39823ZM8 6.39823C6.73999 6.39823 4.83495 6.63627 3.20496 7.39073C1.56021 8.15201 0 9.55297 0 11.8982H2C2 10.6435 2.77313 9.79445 4.04504 9.20573C5.33172 8.61019 6.92667 8.39823 8 8.39823V6.39823ZM0 11.8982V16.3982H2V11.8982H0ZM1 17.3982H29V15.3982H1V17.3982ZM2 31.3982V16.3982H0V31.3982H2ZM1 17.3982H12V15.3982H1V17.3982ZM11 16.3982V31.2341H13V16.3982H11ZM11.9851 30.2342L0.985076 30.3984L1.01492 32.3981L12.0149 32.234L11.9851 30.2342Z" fill="#84C313" mask="url(#path-1-outside-1_16_39)"/>
</svg>
